<?xml version="1.0" encoding="iso-8859-1"?>
<!-- Generator: Adobe Illustrator 19.0.0, SVG Export Plug-In . SVG Version: 6.00 Build 0)  -->
<svg xmlns="http://www.w3.org/2000/svg" xmlns:xlink="http://www.w3.org/1999/xlink" version="1.1" id="Capa_1" x="0px" y="0px" viewBox="0 0 512.002 512.002" style="enable-background:new 0 0 512.002 512.002;" xml:space="preserve" width="512px" height="512px">
<g>
	<g>
		<path d="M413.902,181.88h-17.787c0.024-0.592,0.049-1.185,0.049-1.782c0-24.138-19.638-43.775-43.775-43.775    c-4.622,0-9.172,0.726-13.507,2.133c-5.304-23.125-26.115-40.48-50.751-40.48c-1.524,0-3.055,0.068-4.582,0.203    c-8.134-12.873-22.468-20.932-37.912-20.932c-17.334,0-32.954,10.083-40.334,25.293c-3.73-0.968-7.571-1.455-11.487-1.455    c-18.074,0-34.254,10.551-41.662,26.705c-16.103,2.379-30.901,10.16-42.076,22.214c-8.424,9.087-14.243,20.055-17.092,31.877    h-19.76c-9.649,0-17.5,7.851-17.5,17.5v51.332c0,6.893,5.607,12.5,12.5,12.5h2.345v0.335c0,31.7,9.142,62.395,25.67,88.803    l8.967,141.686c0.627,9.906,9.212,17.965,19.137,17.965h238.439c9.925,0,18.51-8.059,19.137-17.965l2.883-45.562    c0.262-4.134-2.877-7.697-7.011-7.959c-4.139-0.255-7.697,2.877-7.958,7.012l-0.772,12.21H118.066l-5.399-85.307    c8.806,10.025,18.851,19.105,30.013,26.977c1.313,0.927,2.822,1.372,4.316,1.372c2.355,0,4.675-1.107,6.135-3.179    c2.388-3.385,1.579-8.064-1.807-10.451c-16.183-11.413-29.789-25.603-40.36-41.625l-7.238-114.368h198.275    c4.142,0,7.5-3.357,7.5-7.5s-3.358-7.5-7.5-7.5H73.226c-1.355,0-2.5-1.145-2.5-2.5V199.38c0-1.355,1.145-2.5,2.5-2.5h340.677    c1.355,0,2.5,1.145,2.5,2.5v16.275c0,1.355-1.145,2.5-2.5,2.5h-66.902c-4.142,0-7.5,3.357-7.5,7.5s3.358,7.5,7.5,7.5h36.4    l-7.24,114.404c-28.189,42.501-77.094,70.672-132.598,70.672c-20.689,0-40.8-3.854-59.777-11.453    c-3.846-1.54-8.211,0.328-9.751,4.174c-1.54,3.845,0.329,8.211,4.174,9.75c20.758,8.315,42.747,12.529,65.354,12.529    c52.246,0,99.154-22.837,130.901-58.866l-2.289,36.161c-0.262,4.134,2.877,7.697,7.011,7.959c4.135,0.263,7.697-2.878,7.958-7.012    l3.739-59.075c16.27-25.859,25.673-56.297,25.673-88.852v-0.335h2.345c6.893,0,12.5-5.607,12.5-12.5V199.38    C431.402,189.73,423.552,181.88,413.902,181.88z M368.112,474.736l-1.162,18.352c-0.13,2.048-2.116,3.912-4.167,3.912H124.345    c-2.051,0-4.037-1.864-4.167-3.912l-1.162-18.352H368.112z M93.712,312.396c-5.318-15.586-8.142-32.064-8.142-48.849v-0.335h5.029    L93.712,312.396z M73.226,233.155h15.471l0.953,15.057H70.726v-15.257C71.545,233.073,72.374,233.155,73.226,233.155z     M381.086,181.877H108.607c6.952-21.74,27.371-39.636,53.706-39.636c16.213,0,31.657,7.049,42.396,19.221    c1.482,1.681,3.549,2.538,5.627,2.538c1.763,0,3.533-0.618,4.959-1.876c3.106-2.74,3.402-7.479,0.662-10.586    c-11.93-13.521-28.453-21.993-46.194-23.894c5.736-7.157,14.492-11.561,24.052-11.561c4.441,0,8.739,0.933,12.773,2.771    c1.996,0.909,4.289,0.9,6.276-0.026c1.988-0.926,3.471-2.675,4.059-4.787c3.574-12.833,15.381-21.796,28.712-21.796    c11.542,0,22.153,6.769,27.034,17.244c1.458,3.128,4.863,4.86,8.247,4.191c2.384-0.469,4.811-0.707,7.213-0.707    c18.981,0,34.772,14.472,36.83,32.961c-5.74,4.613-10.345,10.705-13.226,17.901c-1.539,3.846,0.33,8.211,4.176,9.75    c0.914,0.366,1.857,0.539,2.785,0.539c2.976,0,5.792-1.783,6.965-4.715c2.272-5.677,6.189-10.289,11.06-13.446    c0.015-0.01,0.03-0.016,0.045-0.025c0.583-0.378,1.176-0.732,1.781-1.066c4.232-2.329,8.977-3.552,13.841-3.552    c15.867,0,28.775,12.908,28.775,28.775C381.161,180.695,381.123,181.286,381.086,181.877z M401.558,263.547    c0,17.148-2.87,33.651-8.156,49.08l3.127-49.415h5.029V263.547z M416.402,248.212h-18.924l0.953-15.057h15.471    c0.851,0,1.681-0.082,2.5-0.2V248.212z" fill="#FFFFFF"/>
	</g>
</g>
<g>
	<g>
		<path d="M263.256,124.922c-14.422,0-26.155,11.733-26.155,26.156c0,4.143,3.358,7.5,7.5,7.5c4.142,0,7.5-3.357,7.5-7.5    c0-6.151,5.004-11.156,11.155-11.156s11.156,5.005,11.156,11.156c0,4.143,3.358,7.5,7.5,7.5c4.142,0,7.5-3.357,7.5-7.5    C289.412,136.655,277.678,124.922,263.256,124.922z" fill="#FFFFFF"/>
	</g>
</g>
<g>
	<g>
		<path d="M374.809,26.461c-26.213,0-47.539,21.327-47.539,47.541c0,26.213,21.326,47.539,47.539,47.539    c26.214,0,47.54-21.326,47.54-47.539C422.349,47.788,401.023,26.461,374.809,26.461z M374.809,106.541    c-17.942,0-32.539-14.597-32.539-32.539c0-17.943,14.597-32.541,32.539-32.541c17.943,0,32.54,14.598,32.54,32.541    C407.349,91.944,392.752,106.541,374.809,106.541z" fill="#FFFFFF"/>
	</g>
</g>
<g>
	<g>
		<path d="M141.339,48.227c-13.64,0-24.738,11.097-24.738,24.738c0,13.64,11.097,24.738,24.738,24.738s24.738-11.098,24.738-24.738    C166.077,59.324,154.979,48.227,141.339,48.227z M141.339,82.703c-5.369,0-9.738-4.368-9.738-9.738    c0-5.37,4.368-9.738,9.738-9.738s9.738,4.368,9.738,9.738C151.077,78.335,146.708,82.703,141.339,82.703z" fill="#FFFFFF"/>
	</g>
</g>
<g>
	<g>
		<path d="M431.539,129.83c-13.641,0-24.738,11.098-24.738,24.738c0,13.641,11.098,24.738,24.738,24.738    s24.737-11.098,24.737-24.738S445.179,129.83,431.539,129.83z M431.539,164.307c-5.37,0-9.738-4.368-9.738-9.738    c0-5.37,4.369-9.738,9.738-9.738c5.369,0,9.737,4.368,9.737,9.738S436.908,164.307,431.539,164.307z" fill="#FFFFFF"/>
	</g>
</g>
<g>
	<g>
		<path d="M93.282,98.05c-10.952,0-19.862,8.91-19.862,19.863c0,10.952,8.91,19.862,19.862,19.862s19.862-8.91,19.862-19.862    C113.144,106.96,104.234,98.05,93.282,98.05z M93.282,122.775c-2.681,0-4.862-2.182-4.862-4.862c0-2.682,2.181-4.863,4.862-4.863    c2.681,0,4.862,2.182,4.862,4.863C98.144,120.594,95.963,122.775,93.282,122.775z" fill="#FFFFFF"/>
	</g>
</g>
<g>
	<g>
		<path d="M225.515,19.659c-9.28-2.89-9.877-3.486-12.767-12.766C211.467,2.77,207.704,0,203.386,0s-8.082,2.77-9.363,6.891    c-2.889,9.281-3.485,9.878-12.769,12.769c-4.121,1.285-6.89,5.047-6.89,9.362c-0.001,4.32,2.771,8.083,6.891,9.364    c9.282,2.89,9.878,3.486,12.766,12.764c1.281,4.124,5.044,6.895,9.364,6.895s8.083-2.771,9.363-6.89    c2.891-9.282,3.488-9.879,12.766-12.769c4.123-1.282,6.893-5.046,6.893-9.364C232.407,24.708,229.639,20.946,225.515,19.659z     M203.387,35.143c-1.649-2.521-3.6-4.473-6.121-6.121c2.521-1.649,4.471-3.599,6.12-6.121c1.649,2.521,3.6,4.472,6.121,6.121    C206.986,30.67,205.036,32.622,203.387,35.143z" fill="#FFFFFF"/>
	</g>
</g>
<g>
</g>
<g>
</g>
<g>
</g>
<g>
</g>
<g>
</g>
<g>
</g>
<g>
</g>
<g>
</g>
<g>
</g>
<g>
</g>
<g>
</g>
<g>
</g>
<g>
</g>
<g>
</g>
<g>
</g>
</svg>
